<?xml version="1.0" encoding="utf-8"?>
<!-- Generator: Adobe Illustrator 25.2.3, SVG Export Plug-In . SVG Version: 6.00 Build 0)  -->
<svg version="1.1" id="Layer_1" xmlns="http://www.w3.org/2000/svg" xmlns:xlink="http://www.w3.org/1999/xlink" x="0px" y="0px"
	 viewBox="0 0 1800 1800" style="enable-background:new 0 0 1800 1800;" xml:space="preserve">
<style type="text/css">
	.st0{fill:#282727;}
	.st1{fill:#00978A;}
	.st2{fill:#00988B;}
</style>
<g>
	<path class="st0" d="M36.33,1052.55V842.59h139.18v44.39H84.63v40.49h73.49v44.09H84.63v80.99H36.33z"/>
	<path class="st0" d="M268.2,1056.15c-15.6,0-29.4-3.3-41.39-9.9c-12-6.6-21.4-15.79-28.2-27.6c-6.8-11.8-10.2-25.5-10.2-41.09
		c0-15.6,3.4-29.29,10.2-41.09c6.8-11.8,16.24-21,28.35-27.6c12.1-6.6,26.04-9.9,41.84-9.9c14.4,0,27.25,3.4,38.54,10.2
		c11.29,6.8,20.3,16.95,27,30.45c6.7,13.5,10.05,30.14,10.05,49.94H231.61l4.8-5.7c0,6.8,1.45,12.8,4.35,18
		c2.9,5.2,6.85,9.2,11.85,12c5,2.8,10.6,4.2,16.8,4.2c7.4,0,13.6-1.65,18.6-4.95c5-3.3,8.59-7.55,10.8-12.75l41.09,14.4
		c-3.8,9.2-9.35,16.95-16.65,23.25c-7.3,6.3-15.7,10.9-25.2,13.8C288.55,1054.7,278.6,1056.15,268.2,1056.15z M237.61,964.67
		l-4.5-6.3h67.19l-4.5,6c0-7.2-1.45-13-4.35-17.4c-2.9-4.4-6.6-7.6-11.1-9.6c-4.5-2-8.85-3-13.05-3c-4.4,0-8.85,1-13.35,3
		c-4.5,2-8.35,5.15-11.55,9.45C239.2,951.12,237.61,957.07,237.61,964.67z"/>
	<path class="st0" d="M412.48,1056.15c-17.8,0-31.6-4-41.39-12c-9.8-7.99-14.7-19.29-14.7-33.89c0-15.79,5.1-27.55,15.3-35.24
		c10.2-7.69,24.49-11.55,42.89-11.55h41.09v30h-23.4c-10.2,0-17.45,1.35-21.75,4.05c-4.3,2.7-6.45,6.55-6.45,11.55
		c0,3.6,1.6,6.45,4.8,8.55c3.2,2.1,7.8,3.15,13.8,3.15c5.8,0,10.85-1.24,15.15-3.75c4.3-2.5,7.69-5.85,10.2-10.05
		c2.5-4.2,3.75-8.7,3.75-13.5h12c0,19.8-4.2,35.2-12.6,46.19C442.78,1050.66,429.88,1056.15,412.48,1056.15z M453.28,1052.55
		l-1.5-32.4v-42.29c0-7.99-0.65-15-1.95-21c-1.31-6-3.75-10.65-7.35-13.95c-3.6-3.3-9-4.95-16.2-4.95c-5.8,0-10.75,1.3-14.85,3.9
		c-4.1,2.6-7.65,6.1-10.65,10.5l-41.09-13.5c3.6-7.4,8.3-14.1,14.1-20.1c5.8-6,13.05-10.8,21.75-14.4c8.7-3.6,18.75-5.4,30.15-5.4
		c15.6,0,28.8,2.9,39.59,8.7c10.8,5.8,18.9,13.9,24.3,24.3c5.4,10.4,8.1,22.7,8.1,36.89l-0.6,83.69H453.28z"/>
	<path class="st0" d="M514.47,941.87v-39.3h104.39v39.3H514.47z M590.66,1056.15c-17.8,0-31.05-4.24-39.74-12.75
		c-8.7-8.5-13.05-20.65-13.05-36.44V855.78h46.79v139.48c0,6,1.1,10.4,3.3,13.2c2.2,2.8,5.6,4.2,10.2,4.2c1.8,0,3.9-0.45,6.3-1.35
		c2.4-0.9,4.6-2.05,6.6-3.45l16.2,34.2c-4.8,4-10.55,7.35-17.25,10.05C603.3,1054.81,596.85,1056.15,590.66,1056.15z"/>
	<path class="st0" d="M650.94,1052.55V842.59h46.79v209.97H650.94z M747.53,975.77c0-7.99-0.9-14.35-2.7-19.05
		c-1.8-4.7-4.4-8.15-7.8-10.35c-3.4-2.2-7.4-3.4-12-3.6c-9-0.2-15.8,2.25-20.4,7.35c-4.6,5.1-6.9,12.85-6.9,23.25h-14.1
		c0-15.79,2.4-29.25,7.2-40.34c4.8-11.1,11.35-19.54,19.65-25.35c8.3-5.8,17.85-8.7,28.65-8.7c12.2,0,22.39,2.45,30.6,7.35
		c8.2,4.9,14.35,12.35,18.45,22.35c4.1,10,6.15,22.8,6.15,38.4v8.7H747.53z M747.53,1052.55v-76.79h46.79v76.79H747.53z"/>
	<path class="st0" d="M894.81,1056.15c-15.6,0-29.4-3.3-41.39-9.9c-12-6.6-21.4-15.79-28.2-27.6c-6.8-11.8-10.2-25.5-10.2-41.09
		c0-15.6,3.4-29.29,10.2-41.09c6.8-11.8,16.24-21,28.35-27.6c12.1-6.6,26.04-9.9,41.84-9.9c14.4,0,27.25,3.4,38.54,10.2
		c11.29,6.8,20.29,16.95,27,30.45c6.7,13.5,10.05,30.14,10.05,49.94H858.21l4.8-5.7c0,6.8,1.45,12.8,4.35,18
		c2.9,5.2,6.85,9.2,11.85,12c5,2.8,10.6,4.2,16.8,4.2c7.4,0,13.6-1.65,18.6-4.95c5-3.3,8.6-7.55,10.8-12.75l41.09,14.4
		c-3.8,9.2-9.35,16.95-16.65,23.25c-7.3,6.3-15.7,10.9-25.2,13.8C915.15,1054.7,905.21,1056.15,894.81,1056.15z M864.21,964.67
		l-4.5-6.3h67.19l-4.5,6c0-7.2-1.45-13-4.35-17.4c-2.9-4.4-6.6-7.6-11.1-9.6c-4.5-2-8.85-3-13.05-3c-4.4,0-8.85,1-13.35,3
		c-4.5,2-8.35,5.15-11.55,9.45C865.81,951.12,864.21,957.07,864.21,964.67z"/>
	<path class="st0" d="M990.8,1052.55V902.58h46.79v149.98H990.8z M1025.29,974.87c0-16.2,3.25-29.7,9.75-40.49
		c6.5-10.8,14.7-18.9,24.6-24.3c9.9-5.4,20.25-8.1,31.04-8.1v45.6c-9.2,0-17.85,1-25.94,3c-8.1,2-14.65,5.05-19.65,9.15
		c-5,4.1-7.5,9.35-7.5,15.75L1025.29,974.87z"/>
	<path class="st1" d="M1115.28,1052.55V842.59h53.09l55.79,82.79l56.09-82.79h53.09v209.97h-48.29V917.58l-60.59,88.79l-60.89-88.79
		v134.98H1115.28z"/>
	<path class="st1" d="M1417.33,1056.15c-17.8,0-31.6-4-41.4-12c-9.8-7.99-14.7-19.29-14.7-33.89c0-15.79,5.1-27.55,15.3-35.24
		c10.2-7.69,24.49-11.55,42.89-11.55h41.09v30h-23.4c-10.2,0-17.45,1.35-21.75,4.05c-4.3,2.7-6.45,6.55-6.45,11.55
		c0,3.6,1.6,6.45,4.8,8.55c3.2,2.1,7.8,3.15,13.8,3.15c5.8,0,10.85-1.24,15.15-3.75c4.3-2.5,7.69-5.85,10.2-10.05
		c2.5-4.2,3.75-8.7,3.75-13.5h12c0,19.8-4.2,35.2-12.6,46.19C1447.63,1050.66,1434.73,1056.15,1417.33,1056.15z M1458.13,1052.55
		l-1.5-32.4v-42.29c0-7.99-0.65-15-1.95-21c-1.3-6-3.75-10.65-7.35-13.95c-3.6-3.3-9-4.95-16.2-4.95c-5.8,0-10.75,1.3-14.85,3.9
		c-4.1,2.6-7.65,6.1-10.65,10.5l-41.09-13.5c3.6-7.4,8.29-14.1,14.1-20.1c5.8-6,13.05-10.8,21.75-14.4c8.7-3.6,18.75-5.4,30.15-5.4
		c15.6,0,28.8,2.9,39.6,8.7c10.8,5.8,18.89,13.9,24.29,24.3c5.4,10.4,8.1,22.7,8.1,36.89l-0.6,83.69H1458.13z"/>
	<path class="st1" d="M1531.02,1052.55V902.58h46.79v149.98H1531.02z M1565.51,974.87c0-16.2,3.25-29.7,9.75-40.49
		c6.5-10.8,14.7-18.9,24.6-24.3c9.9-5.4,20.25-8.1,31.04-8.1v45.6c-9.2,0-17.85,1-25.94,3c-8.1,2-14.65,5.05-19.65,9.15
		c-5,4.1-7.5,9.35-7.5,15.75L1565.51,974.87z"/>
	<path class="st1" d="M1638.7,941.87v-39.3h104.38v39.3H1638.7z M1714.89,1056.15c-17.8,0-31.05-4.24-39.75-12.75
		c-8.7-8.5-13.05-20.65-13.05-36.44V855.78h46.79v139.48c0,6,1.1,10.4,3.3,13.2c2.2,2.8,5.6,4.2,10.2,4.2c1.8,0,3.9-0.45,6.3-1.35
		c2.4-0.9,4.6-2.05,6.6-3.45l16.2,34.2c-4.8,4-10.55,7.35-17.25,10.05C1727.53,1054.81,1721.08,1056.15,1714.89,1056.15z"/>
</g>
<path id="XMLID_382_" class="st2" d="M1643.41,831.08c-0.37-2.98-1.63-5.9-3.21-8.46c-2.19-3.58-4.93-6.79-7.11-10.41
	c-3.16-5.25-4.93-11.25-8.32-16.36c-3.39-5.11-9.2-9.44-15.25-8.46c-1.26,3.21,2.6,6.09,3.35,9.44c0.79,3.49-1.86,6.69-4.46,9.16
	c-2.84,2.65-6,5.21-9.81,5.72c-0.93,0.14-1.91,0.09-2.88-0.14c-1.63-1.39-2.84-3.81-3.44-7.21c-0.84-4.46-0.93-8.93-0.23-13.48
	c0.28-1.86,1.35-4.65-0.51-5.53c-2-1.02-3.25,1.72-4.6,3.11c-2.51,2.6-4.42,5.58-5.95,8.88c-1.21,2.51-2.46,5.02-3.81,7.48
	c-3.77,6.88-7.67,6.93-11.81,0.19c-2.05-3.3-3.86-6.74-5.86-10.09c-2.42-4-5.07-7.81-8.46-11.06c-1.53-1.49-3.35-3.9-5.39-2.6
	c-2,1.21-0.19,3.72,0.51,5.49c2.42,6.41,5.02,12.74,5.49,19.66c0.09,1.39,0.23,2.79,0.09,4.18c-0.51,5.53-2.46,6.69-7.21,3.81
	c-6.51-3.95-12.74-8.23-20.27-10.23c-3.35-0.88-6.74-1.3-10.13-1.21c-1.63,0.05-3.81-0.56-4.56,1.44c-0.79,2.18,1.39,3.25,2.7,4.42
	c2.05,1.91,4.32,3.58,6.37,5.44c2.37,2.09,4.18,4.65,5.49,7.48c2.14,4.51,1.12,6.97-3.77,8.37c-0.79,0.23-1.53,0.42-2.28,0.65
	c-0.37,0.05-0.79,0.09-1.16,0.19c-8.69,1.26-17.01,5.25-23.43,11.3c-1.12,1.07-2.28,2.28-2.65,3.81c-0.42,1.53,0.23,3.39,1.72,3.95
	c0.7,0.23,1.53,0.14,2.28,0.23c1.95,0.28,3.49,1.77,4.6,3.35c1.16,1.58,2.05,3.39,3.44,4.74c0.7,0.65,1.44,1.16,2.28,1.58
	c1.21,1.39,2.74,2.65,4.46,3.72c4.88,2.93,10.23,4.56,15.95,4.6h3.35c-8.18,4.79-17.11,10.83-26.22,18.41
	c-11.81,9.76-21.43,20.08-29.24,29.98l5.76,12.69c31.66-37.7,69.59-54.39,90.93-61.5c0.33,0.6,0.37,1.72,0,3.53
	c-2.93,13.48,5.86,26.13,19.01,28.4c13.02,2.23,25.2-6.42,27.43-19.8c0.46-2.79,1.91-3.86,4.28-4.83
	c9.39-3.86,17.9-9.06,22.17-18.83C1646.85,847.53,1646.75,839.07,1643.41,831.08z M1594.22,883.93c-3.11,0-5.62-2.51-5.62-5.58
	c0-3.11,2.51-5.62,5.62-5.62c3.07,0,5.58,2.51,5.58,5.62C1599.8,881.42,1597.29,883.93,1594.22,883.93z"/>
</svg>
